#N canvas 12 18 853 1026 12;
#N canvas 1797 188 1835 1002 harmonyCalc 1;
#X obj 59 40 inlet;
#X obj 562 358 inlet;
#X obj 225 177 + 1;
#X obj 179 243 sel 0 1, f 24;
#X obj 243 120 loadbang;
#X msg 243 148 1;
#X obj 179 176 i 1;
#X obj 179 210 % 2;
#X obj 58 236 random 5;
#X obj 59 275 i;
#X obj 269 272 i;
#X obj 54 154 t b b;
#X obj 59 307 text get intervals1;
#X obj 271 303 text get intervals2;
#X obj 377 257 text define -k intervalRatios;
#A set 4 3 \; 3 2 \; 128 81 \; 27 16 \; 16 9 \; 243 128 \;;
#X obj 379 227 text define -k intervals2;
#A set 0 0 \; 1 2 \; 1 3 \; 1 4 \; 2 3 \;;
#X obj 379 198 text define -k intervals1;
#A set 0 3 \; 0 5 \; 1 1 \; 1 2 \; 1 3 \;;
#X obj 60 353 unpack, f 28;
#X obj 60 396 text get intervalRatios;
#X obj 59 435 unpack;
#X obj 60 474 / 0;
#X obj 254 396 text get intervalRatios;
#X obj 253 435 unpack;
#X obj 254 474 / 0;
#X obj 60 586 pack f f;
#X obj 252 533 * 0;
#X obj 59 531 * 0;
#X obj 145 505 t f f;
#X obj 149 634 t f f;
#X obj 150 668 pack f f;
#X obj 59 727 list prepend;
#X obj 66 943 list split 2;
#X obj 246 797 list length;
#X obj 61 766 t l l l, f 27;
#X obj 166 898 spigot;
#X obj 246 853 expr 1 - $f1;
#X obj 67 897 spigot;
#X obj 172 944 t l;
#X obj 224 898 t l;
#X obj 246 825 > 5;
#X obj 360 787 outlet;
#X obj 71 629 outlet;
#X connect 0 0 11 0;
#X connect 1 0 27 0;
#X connect 1 0 28 0;
#X connect 2 0 6 1;
#X connect 3 0 9 0;
#X connect 3 1 10 0;
#X connect 4 0 5 0;
#X connect 5 0 6 1;
#X connect 6 0 2 0;
#X connect 6 0 7 0;
#X connect 7 0 3 0;
#X connect 8 0 9 1;
#X connect 8 0 10 1;
#X connect 9 0 12 0;
#X connect 10 0 13 0;
#X connect 11 0 8 0;
#X connect 11 1 6 0;
#X connect 12 0 17 0;
#X connect 13 0 17 0;
#X connect 17 0 18 0;
#X connect 17 1 21 0;
#X connect 18 0 19 0;
#X connect 19 0 20 0;
#X connect 19 1 20 1;
#X connect 20 0 26 0;
#X connect 21 0 22 0;
#X connect 22 0 23 0;
#X connect 22 1 23 1;
#X connect 23 0 25 0;
#X connect 24 0 30 0;
#X connect 24 0 41 0;
#X connect 25 0 24 1;
#X connect 26 0 24 0;
#X connect 27 0 26 1;
#X connect 27 1 25 1;
#X connect 28 0 29 0;
#X connect 28 1 29 1;
#X connect 29 0 30 1;
#X connect 30 0 33 0;
#X connect 30 0 40 0;
#X connect 31 1 37 0;
#X connect 32 0 39 0;
#X connect 33 0 36 0;
#X connect 33 1 34 0;
#X connect 33 2 32 0;
#X connect 34 0 38 0;
#X connect 35 0 34 1;
#X connect 36 0 31 0;
#X connect 37 0 30 1;
#X connect 38 0 30 1;
#X connect 39 0 35 0;
#X connect 39 0 36 1;
#X restore 67 605 pd harmonyCalc;
#X f 24;
#X obj 232 562 nbx 5 17 -1e+37 1e+37 0 0 empty empty empty 0 -10 0 12 #fcfcfc #000000 #000000 0 256;
#X obj 368 277 text define -k bassNotes;
#A set 41.2 \; 46.25 \; 51.91 \; 61.74 \; 69.3 \; 82.41 \;;
#X obj 228 470 text get bassNotes;
#X obj 228 281 loadbang;
#X obj 228 431 random 6;
#X obj 228 383 metro 1 1 permin;
#X obj 226 347 tgl 19 0 empty empty empty 0 -10 0 12 #fcfcfc #000000 #000000 0 1;
#X msg 225 311 1;
#N canvas 861 203 934 694 melody 0;
#X obj 83 1703 *~ 0.4;
#X obj 81 1588 vline~;
#X obj 82 1621 *~;
#X obj 189 1590 osc~ 1000;
#X msg 81 1557 1 5 \, 0 150 10;
#X obj 279 135 text define -k notes;
#A set 92.4 \; 103.95 \; 109.511 \; 116.944 \; 131.562 \;;
#X obj 81 1453 text get notes;
#X obj 111 771 text size notes;
#X obj 60 470 tgl 19 0 empty empty empty 0 -10 0 12 #fcfcfc #000000 #000000 0 1;
#X obj 82 1410 % 4;
#X obj 232 1415 i;
#X obj 232 1382 / 4;
#X obj 234 1449 + 1;
#X obj 82 1324 t f f, f 22;
#X obj 82 1488 expr $f1 * pow(2 \, $f2);
#X obj 81 1521 t b f, f 16;
#X obj 112 799 send numberOfFreqs;
#X obj 250 1351 r numberOfFreqs;
#X obj 101 1379 r numberOfFreqs;
#X obj 405 675 r numberOfFreqs;
#X text 444 704 this number sets the number of octaves covered by the range, f 16;
#X obj 70 961 i;
#X obj 70 925 expr $f2 * ($f1 / 100.);
#X obj 406 769 s range;
#X obj 227 886 r range;
#X obj 69 885 i;
#X obj 304 954 - 2;
#X obj 304 923 random 5;
#X obj 69 1019 + 0;
#X obj 63 681 bng 19 250 50 0 empty empty empty 0 -10 0 12 #fcfcfc #000000 #000000;
#X obj 78 1074 abs;
#X obj 235 1114 r range;
#X obj 218 1202 / 0;
#X obj 218 1232 i;
#X obj 80 1219 % 0;
#X obj 80 1263 expr $f1 * (1 - (2 * $f2)) + ($f3 * $f2);
#X obj 77 1112 t f f, f 20;
#X obj 235 1149 t f f f, f 18;
#X obj 64 734 t b b b;
#X obj 405 709 * 3;
#X obj 62 636 metro 1 480 permin;
#X obj 83 572 i;
#X msg 84 602 tempo \$1 permin;
#X obj 531 186 s dial;
#X obj 84 515 r dial;
#X obj 89 842 r dial;
#X obj 84 545 expr ((100 * pow(($f1 / 100) \, 0.5)) * 5) + 90;
#X obj 106 701 s tick;
#X obj 60 408 loadbang;
#X msg 60 440 1;
#X obj 48 26 inlet;
#X msg 275 94 clear;
#X obj 47 59 t b l b;
#X obj 73 139 cyclone/zl sort;
#X obj 73 108 cyclone/zl thin;
#X obj 78 212 cyclone/zl iter 1;
#X obj 73 171 t l b;
#X obj 213 281 cyclone/counter 0 100;
#X obj 80 250 t l b;
#X obj 87 345 text set notes;
#X obj 526 52 inlet;
#X obj 531 131 * 100;
#X obj 160 1630 r dial;
#X obj 160 1665 expr pow($f1 * 0.004 \, 0.5);
#X obj 84 1751 throw~ aq.dac.l;
#X obj 212 1749 throw~ aq.dac.r;
#X connect 0 0 64 0;
#X connect 0 0 65 0;
#X connect 1 0 2 1;
#X connect 2 0 0 0;
#X connect 3 0 2 0;
#X connect 4 0 1 0;
#X connect 6 0 14 0;
#X connect 7 0 16 0;
#X connect 8 0 40 0;
#X connect 9 0 6 0;
#X connect 10 0 12 0;
#X connect 11 0 10 0;
#X connect 12 0 14 1;
#X connect 13 0 9 0;
#X connect 13 1 11 0;
#X connect 14 0 15 0;
#X connect 15 0 4 0;
#X connect 15 1 3 0;
#X connect 17 0 11 1;
#X connect 18 0 9 1;
#X connect 19 0 39 0;
#X connect 21 0 28 0;
#X connect 22 0 21 0;
#X connect 24 0 22 1;
#X connect 25 0 22 0;
#X connect 26 0 28 1;
#X connect 27 0 26 0;
#X connect 28 0 30 0;
#X connect 29 0 38 0;
#X connect 29 0 47 0;
#X connect 30 0 36 0;
#X connect 31 0 37 0;
#X connect 32 0 33 0;
#X connect 33 0 35 1;
#X connect 34 0 35 0;
#X connect 35 0 13 0;
#X connect 36 0 34 0;
#X connect 36 1 32 0;
#X connect 37 0 34 1;
#X connect 37 1 32 1;
#X connect 37 2 35 2;
#X connect 38 0 25 0;
#X connect 38 1 27 0;
#X connect 38 2 7 0;
#X connect 39 0 23 0;
#X connect 40 0 29 0;
#X connect 41 0 42 0;
#X connect 42 0 40 0;
#X connect 44 0 46 0;
#X connect 45 0 25 1;
#X connect 46 0 41 0;
#X connect 48 0 49 0;
#X connect 49 0 8 0;
#X connect 50 0 52 0;
#X connect 51 0 5 0;
#X connect 52 1 54 0;
#X connect 52 2 51 0;
#X connect 53 0 56 0;
#X connect 54 0 53 0;
#X connect 55 0 58 0;
#X connect 56 0 55 0;
#X connect 56 1 57 2;
#X connect 57 0 59 1;
#X connect 58 0 59 0;
#X connect 58 1 57 0;
#X connect 60 0 61 0;
#X connect 61 0 43 0;
#X connect 62 0 63 0;
#X connect 63 0 0 1;
#X restore 232 666 pd melody;
#X obj 530 17 vsl 19 162 0 1 0 0 empty empty empty 0 -9 0 12 #fcfcfc #000000 #000000 0 1;
#X obj 71 384 metro 1 10 permin;
#X obj 72 418 random 3;
#X obj 72 454 == 0;
#X obj 71 487 sel 1;
#X msg 46 47 \; pd dsp 1;
#X obj 46 24 loadbang;
#X obj 566 678 rl.drone;
#X obj 563 929 dac~;
#X obj 566 737 throw~ aq.dac.l;
#X obj 619 760 throw~ aq.dac.r;
#X obj 563 854 catch~ aq.dac.l;
#X obj 616 875 catch~ aq.dac.r;
#N canvas 208 266 1835 1026 rl.melody 1;
#X obj 122 13 inlet;
#X obj 602 156 inlet;
#X obj 125 528 outlet~;
#X obj 491 464 outlet~;
#X floatatom 122 50 5 0 0 0 - - - 0;
#X floatatom 602 180 5 0 0 0 - - - 0;
#X obj 268 438 vline~;
#X obj 123 341 phasor~;
#X obj 125 500 *~;
#X obj 508 402 vline~;
#X obj 493 326 phasor~;
#X obj 491 432 *~;
#X obj 123 365 *~;
#X obj 185 248 / 1000;
#X obj 185 272 +;
#X obj 188 342 phasor~;
#X obj 123 400 +~;
#X obj 212 215 random 5000;
#X obj 289 251 / 1000;
#X obj 289 275 +;
#X obj 292 345 phasor~;
#X obj 123 424 +~;
#X obj 289 227 random 20000;
#X msg 268 414 1 5000 \, 0 2000 5000;
#X obj 490 159 osc~ 0.1;
#X obj 490 183 rl.sigtoctl;
#X obj 490 249 +;
#X msg 508 378 0 0 \, 1 5000 1000 \, 0 2000 7000;
#X obj 123 303 * 1;
#X obj 185 296 * 1;
#X obj 496 285 * 1;
#X obj 289 299 * 2;
#X obj 124 101 t f b b b;
#X obj 604 232 t f b;
#X connect 0 0 4 0;
#X connect 1 0 5 0;
#X connect 4 0 14 0;
#X connect 4 0 19 0;
#X connect 4 0 32 0;
#X connect 5 0 33 0;
#X connect 6 0 8 1;
#X connect 7 0 12 0;
#X connect 8 0 2 0;
#X connect 9 0 11 1;
#X connect 10 0 11 0;
#X connect 11 0 3 0;
#X connect 12 0 16 0;
#X connect 13 0 14 1;
#X connect 14 0 29 0;
#X connect 15 0 16 1;
#X connect 16 0 21 0;
#X connect 17 0 13 0;
#X connect 18 0 19 1;
#X connect 19 0 31 0;
#X connect 20 0 21 1;
#X connect 21 0 8 0;
#X connect 22 0 18 0;
#X connect 23 0 6 0;
#X connect 24 0 25 0;
#X connect 25 0 26 0;
#X connect 26 0 30 0;
#X connect 27 0 9 0;
#X connect 28 0 7 0;
#X connect 29 0 15 0;
#X connect 30 0 10 0;
#X connect 31 0 20 0;
#X connect 32 0 28 0;
#X connect 32 1 23 0;
#X connect 32 2 17 0;
#X connect 32 3 22 0;
#X connect 33 0 26 1;
#X connect 33 1 27 0;
#X restore 118 761 pd rl.melody;
#X obj 118 840 throw~ aq.dac.l;
#X obj 200 865 throw~ aq.dac.r;
#X obj 663 686 nbx 5 14 0 2 0 1 empty empty empty 0 -8 0 10 #fcfcfc #000000 #000000 0.17 256;
#X obj 566 705 *~;
#X obj 607 706 *~;
#X obj 99 689 unpack f f, f 13;
#X obj 616 901 *~ 0.5;
#X obj 563 901 *~ 0.5;
#X obj 143 652 print harony;
#X obj 114 729 * 4;
#X obj 301 745 * 4;
#X obj 118 799 lop~ 500;
#X obj 195 817 lop~ 500;
#X connect 0 0 29 0;
#X connect 0 0 32 0;
#X connect 0 1 9 0;
#X connect 1 0 0 1;
#X connect 1 0 17 0;
#X connect 3 0 1 0;
#X connect 4 0 8 0;
#X connect 5 0 3 0;
#X connect 6 0 5 0;
#X connect 7 0 6 0;
#X connect 7 0 11 0;
#X connect 8 0 7 0;
#X connect 10 0 9 1;
#X connect 11 0 12 0;
#X connect 12 0 13 0;
#X connect 13 0 14 0;
#X connect 14 0 0 0;
#X connect 16 0 15 0;
#X connect 17 0 27 0;
#X connect 17 1 28 0;
#X connect 21 0 31 0;
#X connect 22 0 30 0;
#X connect 23 0 35 0;
#X connect 23 1 36 0;
#X connect 26 0 27 1;
#X connect 26 0 28 1;
#X connect 27 0 19 0;
#X connect 28 0 20 0;
#X connect 29 0 33 0;
#X connect 29 1 34 0;
#X connect 30 0 18 1;
#X connect 31 0 18 0;
#X connect 33 0 23 0;
#X connect 34 0 23 1;
#X connect 35 0 24 0;
#X connect 36 0 25 0;
