#N canvas 87 176 1780 891 12;
#N canvas 1104 37 628 1002 harmonyCalc 0;
#X obj 59 40 inlet;
#X obj 562 358 inlet;
#X obj 225 177 + 1;
#X obj 179 243 sel 0 1, f 24;
#X obj 243 120 loadbang;
#X msg 243 148 1;
#X obj 179 176 i 1;
#X obj 179 210 % 2;
#X obj 58 236 random 5;
#X obj 59 275 i;
#X obj 269 272 i;
#X obj 54 154 t b b;
#X obj 59 307 text get intervals1;
#X obj 271 303 text get intervals2;
#X obj 377 257 text define -k intervalRatios;
#A set 4 3 \; 3 2 \; 128 81 \; 27 16 \; 16 9 \; 243 128 \;;
#X obj 379 227 text define -k intervals2;
#A set 0 0 \; 1 2 \; 1 3 \; 1 4 \; 2 3 \;;
#X obj 379 198 text define -k intervals1;
#A set 0 3 \; 0 5 \; 1 1 \; 1 2 \; 1 3 \;;
#X obj 60 353 unpack, f 28;
#X obj 60 396 text get intervalRatios;
#X obj 59 435 unpack;
#X obj 60 474 / 0;
#X obj 254 396 text get intervalRatios;
#X obj 253 435 unpack;
#X obj 254 474 / 0;
#X obj 60 586 pack f f;
#X obj 252 533 * 0;
#X obj 59 531 * 0;
#X obj 145 505 t f f;
#X obj 149 634 t f f;
#X obj 150 668 pack f f;
#X obj 59 727 list prepend;
#X obj 66 943 list split 2;
#X obj 246 797 list length;
#X obj 61 766 t l l l, f 27;
#X obj 166 898 spigot;
#X obj 246 853 expr 1 - $f1;
#X obj 67 897 spigot;
#X obj 172 944 t l;
#X obj 224 898 t l;
#X obj 246 825 > 5;
#X obj 360 787 outlet;
#X obj 71 629 outlet;
#X connect 0 0 11 0;
#X connect 1 0 27 0;
#X connect 1 0 28 0;
#X connect 2 0 6 1;
#X connect 3 0 9 0;
#X connect 3 1 10 0;
#X connect 4 0 5 0;
#X connect 5 0 6 1;
#X connect 6 0 2 0;
#X connect 6 0 7 0;
#X connect 7 0 3 0;
#X connect 8 0 9 1;
#X connect 8 0 10 1;
#X connect 9 0 12 0;
#X connect 10 0 13 0;
#X connect 11 0 8 0;
#X connect 11 1 6 0;
#X connect 12 0 17 0;
#X connect 13 0 17 0;
#X connect 17 0 18 0;
#X connect 17 1 21 0;
#X connect 18 0 19 0;
#X connect 19 0 20 0;
#X connect 19 1 20 1;
#X connect 20 0 26 0;
#X connect 21 0 22 0;
#X connect 22 0 23 0;
#X connect 22 1 23 1;
#X connect 23 0 25 0;
#X connect 24 0 30 0;
#X connect 24 0 41 0;
#X connect 25 0 24 1;
#X connect 26 0 24 0;
#X connect 27 0 26 1;
#X connect 27 1 25 1;
#X connect 28 0 29 0;
#X connect 28 1 29 1;
#X connect 29 0 30 1;
#X connect 30 0 33 0;
#X connect 30 0 40 0;
#X connect 31 1 37 0;
#X connect 32 0 39 0;
#X connect 33 0 36 0;
#X connect 33 1 34 0;
#X connect 33 2 32 0;
#X connect 34 0 38 0;
#X connect 35 0 34 1;
#X connect 36 0 31 0;
#X connect 37 0 30 1;
#X connect 38 0 30 1;
#X connect 39 0 35 0;
#X connect 39 0 36 1;
#X restore 40 472 pd harmonyCalc;
#X f 24;
#X obj 211 430 nbx 5 17 -1e+37 1e+37 0 0 empty empty empty 0 -10 0
12 -262144 -1 -1 41.2 256;
#X obj 288 43 text define -k bassNotes;
#A set 41.2 \; 46.25 \; 51.91 \; 61.74 \; 69.3 \; 82.41 \;;
#X obj 207 338 text get bassNotes;
#X obj 207 149 loadbang;
#X obj 207 299 random 6;
#X obj 205 215 tgl 19 0 empty empty empty 0 -10 0 12 -262144 -1 -1
1 1;
#X msg 204 179 1;
#N canvas 414 177 934 694 melody 1;
#X obj 83 1703 *~ 0.4;
#X obj 81 1588 vline~;
#X obj 82 1621 *~;
#X obj 189 1590 osc~ 1000;
#X msg 81 1557 1 5 \, 0 150 10;
#X obj 279 135 text define -k notes;
#A set 54.9333 \; 61.8 \; 65.1062 \; 69.525 \;;
#X obj 81 1453 text get notes;
#X obj 111 771 text size notes;
#X obj 60 470 tgl 19 0 empty empty empty 0 -10 0 12 -262144 -1 -1 1
1;
#X obj 82 1410 % 4;
#X obj 232 1415 i;
#X obj 232 1382 / 4;
#X obj 234 1449 + 1;
#X obj 82 1324 t f f, f 22;
#X obj 82 1488 expr $f1 * pow(2 \, $f2);
#X obj 81 1521 t b f, f 16;
#X obj 112 799 send numberOfFreqs;
#X obj 250 1351 r numberOfFreqs;
#X obj 101 1379 r numberOfFreqs;
#X obj 405 675 r numberOfFreqs;
#X text 444 704 this number sets the number of octaves covered by the
range, f 16;
#X obj 70 961 i;
#X obj 70 925 expr $f2 * ($f1 / 100.);
#X obj 406 769 s range;
#X obj 227 886 r range;
#X obj 69 885 i;
#X obj 304 954 - 2;
#X obj 304 923 random 5;
#X obj 69 1019 + 0;
#X obj 63 681 bng 19 250 50 0 empty empty empty 0 -10 0 12 -262144
-1 -1;
#X obj 78 1074 abs;
#X obj 235 1114 r range;
#X obj 218 1202 / 0;
#X obj 218 1232 i;
#X obj 80 1219 % 0;
#X obj 80 1263 expr $f1 * (1 - (2 * $f2)) + ($f3 * $f2);
#X obj 77 1112 t f f, f 20;
#X obj 235 1149 t f f f, f 18;
#X obj 64 734 t b b b;
#X obj 405 709 * 3;
#X obj 62 636 metro 1 480 permin;
#X obj 83 572 i;
#X msg 84 602 tempo \$1 permin;
#X obj 84 515 r dial;
#X obj 89 842 r dial;
#X obj 84 545 expr ((100 * pow(($f1 / 100) \, 0.5)) * 5) + 90;
#X obj 106 701 s tick;
#X obj 60 408 loadbang;
#X msg 60 440 1;
#X obj 48 26 inlet;
#X msg 275 94 clear;
#X obj 47 59 t b l b;
#X obj 73 139 cyclone/zl sort;
#X obj 73 108 cyclone/zl thin;
#X obj 78 212 cyclone/zl iter 1;
#X obj 73 171 t l b;
#X obj 213 281 cyclone/counter 0 100;
#X obj 80 250 t l b;
#X obj 87 345 text set notes;
#X obj 453 1269 r dial;
#X obj 86 1744 outlet~;
#X obj 166 1749 outlet~;
#X obj 297 1627 line;
#X msg 298 1602 \$1 100;
#X obj 160 1664 expr pow($f1 * 0.02 \, 0.5);
#X obj 160 1688 clip 0 0.6;
#X obj 462 1328 > 20;
#X obj 461 1367 change;
#X obj 461 1405 sel 0 1, f 26;
#X obj 462 1618 tgl 19 0 empty empty empty 0 -10 0 12 -262144 -1 -1
0 1;
#X msg 462 1572 0;
#X obj 547 1447 t b b;
#X obj 549 1571 1;
#X obj 464 1516 delay 5000;
#X msg 577 1478 3e+06;
#X obj 528 1370 bng 15 250 50 0 empty empty empty 17 7 0 10 -262144
-1 -1;
#X obj 462 1659 list prepend;
#X obj 462 1684 route 0 1;
#X floatatom 463 1747 5 0 0 0 - - -;
#X msg 462 1708 0;
#X msg 461 1449 5000;
#X obj 407 1623 r dial;
#X connect 0 0 60 0;
#X connect 0 0 61 0;
#X connect 1 0 2 1;
#X connect 2 0 0 0;
#X connect 3 0 2 0;
#X connect 4 0 1 0;
#X connect 6 0 14 0;
#X connect 7 0 16 0;
#X connect 8 0 40 0;
#X connect 9 0 6 0;
#X connect 10 0 12 0;
#X connect 11 0 10 0;
#X connect 12 0 14 1;
#X connect 13 0 9 0;
#X connect 13 1 11 0;
#X connect 14 0 15 0;
#X connect 15 0 4 0;
#X connect 15 1 3 0;
#X connect 17 0 11 1;
#X connect 18 0 9 1;
#X connect 19 0 39 0;
#X connect 21 0 28 0;
#X connect 22 0 21 0;
#X connect 24 0 22 1;
#X connect 25 0 22 0;
#X connect 26 0 28 1;
#X connect 27 0 26 0;
#X connect 28 0 30 0;
#X connect 29 0 38 0;
#X connect 29 0 46 0;
#X connect 30 0 36 0;
#X connect 31 0 37 0;
#X connect 32 0 33 0;
#X connect 33 0 35 1;
#X connect 34 0 35 0;
#X connect 35 0 13 0;
#X connect 36 0 34 0;
#X connect 36 1 32 0;
#X connect 37 0 34 1;
#X connect 37 1 32 1;
#X connect 37 2 35 2;
#X connect 38 0 25 0;
#X connect 38 1 27 0;
#X connect 38 2 7 0;
#X connect 39 0 23 0;
#X connect 40 0 29 0;
#X connect 41 0 42 0;
#X connect 42 0 40 0;
#X connect 43 0 45 0;
#X connect 44 0 25 1;
#X connect 45 0 41 0;
#X connect 47 0 48 0;
#X connect 48 0 8 0;
#X connect 49 0 51 0;
#X connect 50 0 5 0;
#X connect 51 1 53 0;
#X connect 51 2 50 0;
#X connect 52 0 55 0;
#X connect 53 0 52 0;
#X connect 54 0 57 0;
#X connect 55 0 54 0;
#X connect 55 1 56 2;
#X connect 56 0 58 1;
#X connect 57 0 58 0;
#X connect 57 1 56 0;
#X connect 59 0 66 0;
#X connect 62 0 64 0;
#X connect 63 0 62 0;
#X connect 64 0 65 0;
#X connect 65 0 0 1;
#X connect 66 0 67 0;
#X connect 67 0 68 0;
#X connect 67 0 75 0;
#X connect 68 0 80 0;
#X connect 68 1 71 0;
#X connect 69 0 76 1;
#X connect 70 0 69 0;
#X connect 71 0 72 0;
#X connect 71 1 74 0;
#X connect 72 0 69 0;
#X connect 73 0 70 0;
#X connect 74 0 73 0;
#X connect 76 0 77 0;
#X connect 77 0 79 0;
#X connect 77 1 78 0;
#X connect 78 0 63 0;
#X connect 79 0 78 0;
#X connect 80 0 73 0;
#X connect 81 0 76 0;
#X restore 211 534 pd melody;
#X obj 742 100 vsl 19 162 0 1 0 0 empty empty empty 0 -9 0 12 -262144
-1 -1 1208 1;
#X obj 51 322 == 0;
#X obj 50 355 sel 1;
#X msg 46 47 \; pd dsp 1;
#X obj 46 24 loadbang;
#X obj 408 554 rl.drone;
#X obj 330 1073 dac~;
#X obj 408 613 throw~ aq.dac.l;
#X obj 461 636 throw~ aq.dac.r;
#X obj 328 957 catch~ aq.dac.l;
#X obj 381 978 catch~ aq.dac.r;
#N canvas 909 0 916 1016 rl.melody 1;
#X obj 122 13 inlet;
#X obj 602 156 inlet;
#X obj 126 667 outlet~;
#X obj 491 669 outlet~;
#X floatatom 122 50 5 0 0 0 - - -;
#X floatatom 602 180 5 0 0 0 - - -;
#X obj 268 438 vline~;
#X obj 123 341 phasor~;
#X obj 125 500 *~;
#X obj 508 402 vline~;
#X obj 493 326 phasor~;
#X obj 491 432 *~;
#X obj 123 365 *~;
#X obj 185 248 / 1000;
#X obj 185 272 +;
#X obj 188 342 phasor~;
#X obj 123 400 +~;
#X obj 212 215 random 5000;
#X obj 289 251 / 1000;
#X obj 289 275 +;
#X obj 292 345 phasor~;
#X obj 123 424 +~;
#X obj 289 227 random 20000;
#X msg 268 414 1 5000 \, 0 2000 5000;
#X obj 490 159 osc~ 0.1;
#X obj 490 183 rl.sigtoctl;
#X obj 490 249 +;
#X msg 508 378 0 0 \, 1 5000 1000 \, 0 2000 7000;
#X obj 123 303 * 1;
#X obj 185 296 * 1;
#X obj 496 285 * 1;
#X obj 289 299 * 2;
#X obj 124 101 t f b b b;
#X obj 604 232 t f b;
#X obj 260 490 r dormantState;
#X obj 257 552 vline~;
#X msg 259 522 \$1 1000;
#X obj 127 604 *~;
#X obj 488 602 *~;
#X connect 0 0 4 0;
#X connect 1 0 5 0;
#X connect 4 0 14 0;
#X connect 4 0 19 0;
#X connect 4 0 32 0;
#X connect 5 0 33 0;
#X connect 6 0 8 1;
#X connect 7 0 12 0;
#X connect 8 0 37 0;
#X connect 9 0 11 1;
#X connect 10 0 11 0;
#X connect 11 0 38 0;
#X connect 12 0 16 0;
#X connect 13 0 14 1;
#X connect 14 0 29 0;
#X connect 15 0 16 1;
#X connect 16 0 21 0;
#X connect 17 0 13 0;
#X connect 18 0 19 1;
#X connect 19 0 31 0;
#X connect 20 0 21 1;
#X connect 21 0 8 0;
#X connect 22 0 18 0;
#X connect 23 0 6 0;
#X connect 24 0 25 0;
#X connect 25 0 26 0;
#X connect 26 0 30 0;
#X connect 27 0 9 0;
#X connect 28 0 7 0;
#X connect 29 0 15 0;
#X connect 30 0 10 0;
#X connect 31 0 20 0;
#X connect 32 0 28 0;
#X connect 32 1 23 0;
#X connect 32 2 17 0;
#X connect 32 3 22 0;
#X connect 33 0 26 1;
#X connect 33 1 27 0;
#X connect 34 0 36 0;
#X connect 35 0 37 1;
#X connect 35 0 38 1;
#X connect 36 0 35 0;
#X connect 37 0 2 0;
#X connect 38 0 3 0;
#X restore 64 685 pd rl.melody;
#X obj 64 801 throw~ aq.dac.l;
#X obj 146 826 throw~ aq.dac.r;
#X obj 505 562 nbx 5 14 0 2 0 1 empty empty empty 0 -8 0 10 -262144
-1 -1 0.15 256;
#X obj 408 581 *~;
#X obj 449 582 *~;
#X obj 45 613 unpack f f, f 13;
#X obj 381 1004 *~ 0.5;
#X obj 328 1004 *~ 0.5;
#X obj 60 653 * 4;
#X obj 247 669 * 4;
#X obj 64 723 lop~ 500;
#X obj 141 741 lop~ 500;
#X obj 741 340 s dial;
#X obj 741 285 * 100;
#X obj 738 21 loadbang;
#X msg 740 56 0;
#X obj 603 1171 throw~ aq.dac.l;
#X obj 656 1194 throw~ aq.dac.r;
#X obj 603 1139 *~;
#X obj 644 1140 *~;
#X obj 628 479 * 2;
#N canvas 305 359 1200 682 rl.drone2 0;
#X obj 65 212 osc~ 110;
#X obj 462 36 nbx 5 14 -1e+37 1e+37 0 0 empty empty empty 0 -8 0 10
-262144 -1 -1 82.0731 256;
#X obj 271 263 osc~;
#X obj 284 156 random 1000;
#X obj 284 180 / 1000;
#X obj 271 213 expr ($f1 + $f2) * 2;
#X floatatom 271 237 5 0 0 0 - - -;
#X obj 71 236 throw~ rl.right;
#X obj 65 261 throw~ rl.left;
#X obj 436 262 osc~;
#X obj 449 155 random 1000;
#X obj 449 179 / 1000;
#X floatatom 436 236 5 0 0 0 - - -;
#X obj 436 212 expr ($f1 + $f2) * 3;
#X obj 610 155 random 1000;
#X obj 610 179 / 1000;
#X floatatom 597 236 5 0 0 0 - - -;
#X obj 597 212 expr ($f1 + $f2) * 4;
#X obj 597 262 rl.osc.triangle;
#X obj 597 318 rl.pan.mono~;
#X obj 690 318 nbx 5 14 -1e+37 1e+37 0 1 empty empty empty 0 -8 0 10
-262144 -1 -1 60 256;
#X obj 597 286 *~ 1;
#X obj 635 286 nbx 5 14 0 2 0 1 empty empty empty 0 -8 0 10 -262144
-1 -1 0.25 256;
#X obj 778 155 random 1000;
#X obj 778 179 / 1000;
#X floatatom 765 236 5 0 0 0 - - -;
#X obj 765 262 rl.osc.triangle;
#X obj 765 318 rl.pan.mono~;
#X obj 858 318 nbx 5 14 -1e+37 1e+37 0 1 empty empty empty 0 -8 0 10
-262144 -1 -1 -82.07 256;
#X obj 765 286 *~ 1;
#X obj 803 286 nbx 5 14 0 2 0 1 empty empty empty 0 -8 0 10 -262144
-1 -1 0.32 256;
#X obj 765 212 expr ($f1 + $f2) * 5;
#X obj 949 157 random 1000;
#X obj 949 181 / 1000;
#X floatatom 936 238 5 0 0 0 - - -;
#X obj 936 320 rl.pan.mono~;
#X obj 1029 320 nbx 5 14 -1e+37 1e+37 0 1 empty empty empty 0 -8 0
10 -262144 -1 -1 -12.85 256;
#X obj 936 288 *~ 1;
#X obj 974 288 nbx 5 14 0 2 0 1 empty empty empty 0 -8 0 10 -262144
-1 -1 0.04 256;
#X obj 936 214 expr ($f1 + $f2) * 5;
#X obj 936 264 rl.osc.sq~;
#X obj 1095 222 rl.sigtoctl;
#X floatatom 1095 270 5 0 0 0 - - -;
#X obj 1095 246 expr 75 * ($f1 + 1)/2;
#X obj 1095 198 osc~ 0.01;
#X obj 1275 148 random 1000;
#X obj 1275 172 / 1000;
#X floatatom 1262 229 5 0 0 0 - - -;
#X obj 1262 311 rl.pan.mono~;
#X obj 1355 311 nbx 5 14 -1e+37 1e+37 0 1 empty empty empty 0 -8 0
10 -262144 -1 -1 14.73 256;
#X obj 1262 279 *~ 1;
#X obj 1300 279 nbx 5 14 0 2 0 1 empty empty empty 0 -8 0 10 -262144
-1 -1 0.03 256;
#X obj 1262 255 rl.osc.sq~;
#X obj 1421 213 rl.sigtoctl;
#X floatatom 1421 261 5 0 0 0 - - -;
#X obj 1421 237 expr 75 * ($f1 + 1)/2;
#X obj 1421 189 osc~ 0.01;
#X obj 1262 205 expr ($f1 + $f2) * 6;
#X obj 350 32 rl.sigtoctl;
#X obj 350 8 osc~ 0.01;
#X obj 284 130 loadbang;
#X obj 449 127 loadbang;
#X obj 610 128 loadbang;
#X obj 778 126 loadbang;
#X obj 949 126 loadbang;
#X obj 1275 120 loadbang;
#X obj 59 518 lop~ 10000;
#X obj 113 547 lop~ 10000;
#X obj 181 514 nbx 5 14 0 22000 0 1 empty empty empty 0 -8 0 10 -262144
-1 -1 3765.54 256;
#X obj 181 419 osc~ 0.01;
#X obj 181 443 rl.sigtoctl;
#X obj 518 566 *~;
#X obj 518 590 *~ 0.01;
#X floatatom 623 575 5 0 0 0 - - -;
#X obj 518 522 osc~ 40;
#X obj 581 522 expr $f1 * 5;
#X obj 682 495 osc~ 0.01;
#X obj 682 519 rl.sigtoctl;
#X obj 682 543 expr ($f1 + 1)/2 * 0.7;
#X obj 565 552 osc~ 200;
#X obj 889 555 *~;
#X obj 889 579 *~ 0.01;
#X floatatom 994 564 5 0 0 0 - - -;
#X obj 1074 490 osc~ 0.01;
#X obj 1074 514 rl.sigtoctl;
#X obj 1074 538 expr ($f1 + 1)/2 * 0.7;
#X obj 889 511 phasor~ 40;
#X obj 889 482 expr $f1 * 1;
#X obj 969 510 expr $f1 * 8;
#X obj 936 541 osc~ 200;
#X obj 518 613 rl.pan.mono~;
#X obj 627 616 nbx 5 14 -1e+37 1e+37 0 1 empty empty empty 0 -8 0 10
-262144 -1 -1 -56.96 256;
#X obj 889 611 rl.pan.mono~;
#X obj 998 614 nbx 5 14 -1e+37 1e+37 0 1 empty empty empty 0 -8 0 10
-262144 -1 -1 76.04 256;
#X obj 40 22 loadbang;
#X msg 40 47 \; pd dsp 1;
#X obj 59 564 outlet~;
#X obj 112 585 outlet~;
#X obj 185 9 inlet;
#X floatatom 185 33 5 0 0 0 - - -;
#X obj 185 80 line;
#X obj 350 56 expr $f2 + $f1;
#X msg 185 56 \$1 2000;
#X obj 181 467 expr ($f1 + 1)/2 * 10000 + 400;
#X obj 59 465 catch~ rl.left2;
#X obj 113 490 catch~ rl.right2;
#X obj 280 289 throw~ rl.right2;
#X obj 271 315 throw~ rl.left2;
#X obj 445 288 throw~ rl.right2;
#X obj 436 314 throw~ rl.left2;
#X obj 606 344 throw~ rl.right2;
#X obj 597 370 throw~ rl.left2;
#X obj 774 344 throw~ rl.right2;
#X obj 765 370 throw~ rl.left2;
#X obj 945 346 throw~ rl.right2;
#X obj 937 372 throw~ rl.left2;
#X obj 1271 337 throw~ rl.right2;
#X obj 1262 363 throw~ rl.left2;
#X obj 528 637 throw~ rl.right2;
#X obj 518 663 throw~ rl.left2;
#X obj 899 635 throw~ rl.right2;
#X obj 889 661 throw~ rl.left2;
#X obj 462 55 s rl.drone_base_freq2;
#X obj 270 98 r rl.drone_base_freq2;
#X obj 435 97 r rl.drone_base_freq2;
#X obj 596 97 r rl.drone_base_freq2;
#X obj 764 97 r rl.drone_base_freq2;
#X obj 935 99 r rl.drone_base_freq2;
#X obj 518 492 r rl.drone_base_freq2;
#X obj 889 458 r rl.drone_base_freq2;
#X obj 65 186 r rl.drone_base_freq2;
#X obj 1261 90 r rl.drone_base_freq2;
#X connect 0 0 7 0;
#X connect 0 0 8 0;
#X connect 1 0 122 0;
#X connect 2 0 106 0;
#X connect 2 0 107 0;
#X connect 3 0 4 0;
#X connect 4 0 5 1;
#X connect 5 0 6 0;
#X connect 6 0 2 0;
#X connect 9 0 108 0;
#X connect 9 0 109 0;
#X connect 10 0 11 0;
#X connect 11 0 13 1;
#X connect 12 0 9 0;
#X connect 13 0 12 0;
#X connect 14 0 15 0;
#X connect 15 0 17 1;
#X connect 16 0 18 0;
#X connect 17 0 16 0;
#X connect 18 0 21 0;
#X connect 19 0 111 0;
#X connect 19 1 110 0;
#X connect 20 0 19 1;
#X connect 21 0 19 0;
#X connect 22 0 21 1;
#X connect 23 0 24 0;
#X connect 24 0 31 1;
#X connect 25 0 26 0;
#X connect 26 0 29 0;
#X connect 27 0 113 0;
#X connect 27 1 112 0;
#X connect 28 0 27 1;
#X connect 29 0 27 0;
#X connect 30 0 29 1;
#X connect 31 0 25 0;
#X connect 32 0 33 0;
#X connect 33 0 39 1;
#X connect 34 0 40 0;
#X connect 35 0 115 0;
#X connect 35 1 114 0;
#X connect 36 0 35 1;
#X connect 37 0 35 0;
#X connect 38 0 37 1;
#X connect 39 0 34 0;
#X connect 40 0 37 0;
#X connect 41 0 43 0;
#X connect 43 0 40 1;
#X connect 43 0 42 0;
#X connect 44 0 41 0;
#X connect 45 0 46 0;
#X connect 46 0 57 1;
#X connect 47 0 52 0;
#X connect 48 0 117 0;
#X connect 48 1 116 0;
#X connect 49 0 48 1;
#X connect 50 0 48 0;
#X connect 51 0 50 1;
#X connect 52 0 50 0;
#X connect 53 0 55 0;
#X connect 55 0 52 1;
#X connect 55 0 54 0;
#X connect 56 0 53 0;
#X connect 57 0 47 0;
#X connect 58 0 101 0;
#X connect 59 0 58 0;
#X connect 60 0 3 0;
#X connect 61 0 10 0;
#X connect 62 0 14 0;
#X connect 63 0 23 0;
#X connect 64 0 32 0;
#X connect 65 0 45 0;
#X connect 66 0 96 0;
#X connect 67 0 97 0;
#X connect 68 0 66 1;
#X connect 68 0 67 1;
#X connect 69 0 70 0;
#X connect 70 0 103 0;
#X connect 71 0 72 0;
#X connect 72 0 90 0;
#X connect 73 0 72 1;
#X connect 74 0 71 0;
#X connect 75 0 79 0;
#X connect 76 0 77 0;
#X connect 77 0 78 0;
#X connect 78 0 73 0;
#X connect 79 0 71 1;
#X connect 80 0 81 0;
#X connect 81 0 92 0;
#X connect 82 0 81 1;
#X connect 83 0 84 0;
#X connect 84 0 85 0;
#X connect 85 0 82 0;
#X connect 86 0 80 0;
#X connect 87 0 86 0;
#X connect 88 0 89 0;
#X connect 89 0 80 1;
#X connect 90 0 119 0;
#X connect 90 1 118 0;
#X connect 91 0 90 1;
#X connect 92 0 121 0;
#X connect 92 1 120 0;
#X connect 93 0 92 1;
#X connect 94 0 95 0;
#X connect 98 0 99 0;
#X connect 99 0 102 0;
#X connect 100 0 101 1;
#X connect 101 0 1 0;
#X connect 102 0 100 0;
#X connect 103 0 68 0;
#X connect 104 0 66 0;
#X connect 105 0 67 0;
#X connect 123 0 5 0;
#X connect 124 0 13 0;
#X connect 125 0 17 0;
#X connect 126 0 31 0;
#X connect 127 0 39 0;
#X connect 128 0 74 0;
#X connect 128 0 75 0;
#X connect 129 0 87 0;
#X connect 129 0 88 0;
#X connect 130 0 0 0;
#X connect 131 0 57 0;
#X restore 599 1075 pd rl.drone2;
#X msg 633 1013 120;
#X obj 706 1096 *~ 0.3;
#X obj 219 623 throw~ aq.dac.l;
#X obj 272 646 throw~ aq.dac.r;
#X obj 219 591 *~ 1;
#X obj 260 592 *~ 1;
#X obj 1055 344 > 20;
#X obj 1054 383 change;
#X obj 1054 421 sel 0 1, f 26;
#X obj 1055 634 tgl 19 0 empty empty empty 0 -10 0 12 -262144 -1 -1
0 1;
#X msg 1055 588 0;
#X obj 1140 463 t b b;
#X obj 1142 587 1;
#X obj 1055 673 s dormantState;
#X obj 968 591 loadbang;
#X obj 1057 532 delay 5000;
#X msg 1170 494 3e+06;
#X msg 1054 465 30000;
#X obj 51 286 random 2;
#X obj 50 252 metro 1 15 permin;
#X obj 1303 106 comport;
#X msg 1302 21 devices;
#X msg 1318 49 open 0;
#X msg 1323 72 baud 9600;
#X obj 1303 130 externals/getline;
#X obj 1303 154 route list;
#X obj 1303 178 route analog;
#X floatatom 1367 279 5 0 0 0 - - -;
#X floatatom 1411 279 5 0 0 0 - - -;
#X floatatom 1454 280 5 0 0 0 - - -;
#X obj 1367 313 vsl 15 128 0 150 0 0 empty empty empty 0 -9 0 10 -262144
-1 -1 0 1;
#X obj 1412 313 vsl 15 128 0 500 0 0 empty empty empty 0 -9 0 10 -262144
-1 -1 0 1;
#X obj 1454 313 vsl 15 128 0 500 0 0 empty empty empty 0 -9 0 10 -262144
-1 -1 0 1;
#X msg 1388 107 300;
#X obj 1303 250 unpack s f s f s f s f;
#X floatatom 1324 279 5 0 0 0 - - -;
#X obj 1324 313 vsl 15 128 0 500 0 0 empty empty empty 0 -9 0 10 -262144
-1 -1 0 1;
#X obj 1303 202 route 0 1 2 3;
#X floatatom 1559 279 5 0 0 0 - - -;
#X floatatom 1603 279 5 0 0 0 - - -;
#X floatatom 1646 280 5 0 0 0 - - -;
#X obj 1559 313 vsl 15 128 0 150 0 0 empty empty empty 0 -9 0 10 -262144
-1 -1 169 1;
#X obj 1604 313 vsl 15 128 0 500 0 0 empty empty empty 0 -9 0 10 -262144
-1 -1 0 1;
#X obj 1646 313 vsl 15 128 0 500 0 0 empty empty empty 0 -9 0 10 -262144
-1 -1 864 1;
#X obj 1495 250 unpack s f s f s f s f;
#X floatatom 1516 279 5 0 0 0 - - -;
#X obj 1516 313 vsl 15 128 0 500 0 0 empty empty empty 0 -9 0 10 -262144
-1 -1 864 1;
#X floatatom 1746 278 5 0 0 0 - - -;
#X floatatom 1790 278 5 0 0 0 - - -;
#X floatatom 1833 279 5 0 0 0 - - -;
#X obj 1746 312 vsl 15 128 0 150 0 0 empty empty empty 0 -9 0 10 -262144
-1 -1 1270 1;
#X obj 1791 312 vsl 15 128 0 500 0 0 empty empty empty 0 -9 0 10 -262144
-1 -1 3226 1;
#X obj 1833 312 vsl 15 128 0 500 0 0 empty empty empty 0 -9 0 10 -262144
-1 -1 3226 1;
#X obj 1682 249 unpack s f s f s f s f;
#X floatatom 1703 278 5 0 0 0 - - -;
#X obj 1703 312 vsl 15 128 0 500 0 0 empty empty empty 0 -9 0 10 -262144
-1 -1 5055 1;
#X floatatom 1943 278 5 0 0 0 - - -;
#X floatatom 1987 278 5 0 0 0 - - -;
#X floatatom 2030 279 5 0 0 0 - - -;
#X obj 1943 312 vsl 15 128 0 150 0 0 empty empty empty 0 -9 0 10 -262144
-1 -1 0 1;
#X obj 1988 312 vsl 15 128 0 500 0 0 empty empty empty 0 -9 0 10 -262144
-1 -1 0 1;
#X obj 2030 312 vsl 15 128 0 500 0 0 empty empty empty 0 -9 0 10 -262144
-1 -1 0 1;
#X obj 1879 249 unpack s f s f s f s f;
#X floatatom 1900 278 5 0 0 0 - - -;
#X obj 1900 312 vsl 15 128 0 500 0 0 empty empty empty 0 -9 0 10 -262144
-1 -1 0 1;
#X msg 1444 60 close;
#X obj 1464 6 loadbang;
#X obj 1464 31 t b b b;
#X obj 1323 449 s a0.acc;
#X obj 1365 474 s a0.avg;
#X obj 1411 497 s a0.cur;
#X obj 1455 520 s a0.pk;
#X obj 1516 458 s a1.acc;
#X obj 1558 483 s a1.avg;
#X obj 1604 506 s a1.cur;
#X obj 1648 529 s a1.pk;
#X obj 1704 460 s a2.acc;
#X obj 1746 485 s a2.avg;
#X obj 1792 508 s a2.cur;
#X obj 1836 531 s a2.pk;
#X obj 1902 473 s a3.acc;
#X obj 1944 498 s a3.avg;
#X obj 1990 521 s a3.cur;
#X obj 2034 544 s a3.pk;
#X obj 878 52 r a0.avg;
#X obj 1105 50 r a3.avg;
#X obj 1026 52 r a2.avg;
#X obj 948 51 r a1.avg;
#X obj 880 87 expr $f1 + $f2 + $f3 + $f4;
#X obj 880 112 / 4;
#X floatatom 880 137 5 0 0 0 - - -;
#X obj 880 160 / 50;
#X floatatom 880 184 5 0 0 0 - - -;
#X obj 1121 386 bng 15 250 50 0 empty empty empty 17 7 0 10 -262144
-1 -1;
#X obj 1202 781 r dial;
#X obj 1046 1139 line;
#X msg 1047 1114 \$1 100;
#X obj 909 1176 expr pow($f1 * 0.02 \, 0.5);
#X obj 909 1200 clip 0 0.6;
#X obj 1211 840 > 20;
#X obj 1210 879 change;
#X obj 1210 917 sel 0 1, f 26;
#X obj 1211 1130 tgl 19 0 empty empty empty 0 -10 0 12 -262144 -1 -1
0 1;
#X msg 1211 1084 0;
#X obj 1296 959 t b b;
#X obj 1298 1083 1;
#X obj 1213 1028 delay 5000;
#X msg 1326 990 3e+06;
#X obj 1277 882 bng 15 250 50 0 empty empty empty 17 7 0 10 -262144
-1 -1;
#X obj 1211 1171 list prepend;
#X obj 1211 1196 route 0 1;
#X floatatom 1212 1259 5 0 0 0 - - -;
#X msg 1211 1220 0;
#X obj 1156 1135 r dial;
#X msg 1210 961 7000;
#X obj 207 251 metro 1 0.25 permin;
#X connect 0 0 26 0;
#X connect 0 1 8 0;
#X connect 1 0 0 1;
#X connect 1 0 14 0;
#X connect 1 0 41 0;
#X connect 3 0 1 0;
#X connect 4 0 7 0;
#X connect 5 0 3 0;
#X connect 6 0 62 0;
#X connect 6 0 158 0;
#X connect 7 0 6 0;
#X connect 8 0 47 0;
#X connect 8 1 48 0;
#X connect 9 0 34 0;
#X connect 10 0 11 0;
#X connect 11 0 0 0;
#X connect 13 0 12 0;
#X connect 14 0 24 0;
#X connect 14 1 25 0;
#X connect 18 0 28 0;
#X connect 19 0 27 0;
#X connect 20 0 31 0;
#X connect 20 1 32 0;
#X connect 23 0 24 1;
#X connect 23 0 25 1;
#X connect 24 0 16 0;
#X connect 25 0 17 0;
#X connect 26 0 29 0;
#X connect 26 1 30 0;
#X connect 27 0 15 1;
#X connect 28 0 15 0;
#X connect 29 0 20 0;
#X connect 30 0 20 1;
#X connect 31 0 21 0;
#X connect 32 0 22 0;
#X connect 34 0 33 0;
#X connect 34 0 49 0;
#X connect 35 0 36 0;
#X connect 36 0 9 0;
#X connect 39 0 37 0;
#X connect 40 0 38 0;
#X connect 41 0 42 0;
#X connect 42 0 40 0;
#X connect 42 0 39 0;
#X connect 43 0 42 0;
#X connect 44 0 39 1;
#X connect 44 0 40 1;
#X connect 47 0 45 0;
#X connect 48 0 46 0;
#X connect 49 0 50 0;
#X connect 50 0 51 0;
#X connect 50 0 136 0;
#X connect 51 0 60 0;
#X connect 51 1 54 0;
#X connect 52 0 56 0;
#X connect 53 0 52 0;
#X connect 54 0 55 0;
#X connect 54 1 59 0;
#X connect 55 0 52 0;
#X connect 57 0 53 0;
#X connect 58 0 53 0;
#X connect 59 0 58 0;
#X connect 60 0 58 0;
#X connect 61 0 10 0;
#X connect 62 0 61 0;
#X connect 63 0 67 0;
#X connect 64 0 63 0;
#X connect 65 0 63 0;
#X connect 66 0 63 0;
#X connect 67 0 68 0;
#X connect 68 0 69 0;
#X connect 69 0 80 0;
#X connect 70 0 73 0;
#X connect 70 0 112 0;
#X connect 71 0 74 0;
#X connect 71 0 113 0;
#X connect 72 0 75 0;
#X connect 72 0 114 0;
#X connect 76 0 63 0;
#X connect 77 1 78 0;
#X connect 77 3 70 0;
#X connect 77 5 71 0;
#X connect 77 7 72 0;
#X connect 78 0 79 0;
#X connect 78 0 111 0;
#X connect 80 0 77 0;
#X connect 80 1 87 0;
#X connect 80 2 96 0;
#X connect 80 3 105 0;
#X connect 81 0 84 0;
#X connect 81 0 116 0;
#X connect 82 0 85 0;
#X connect 82 0 117 0;
#X connect 83 0 86 0;
#X connect 83 0 118 0;
#X connect 87 1 88 0;
#X connect 87 3 81 0;
#X connect 87 5 82 0;
#X connect 87 7 83 0;
#X connect 88 0 89 0;
#X connect 88 0 115 0;
#X connect 90 0 93 0;
#X connect 90 0 120 0;
#X connect 91 0 94 0;
#X connect 91 0 121 0;
#X connect 92 0 95 0;
#X connect 92 0 122 0;
#X connect 96 1 97 0;
#X connect 96 3 90 0;
#X connect 96 5 91 0;
#X connect 96 7 92 0;
#X connect 97 0 98 0;
#X connect 97 0 119 0;
#X connect 99 0 102 0;
#X connect 100 0 103 0;
#X connect 101 0 104 0;
#X connect 101 0 126 0;
#X connect 102 0 124 0;
#X connect 103 0 125 0;
#X connect 105 1 106 0;
#X connect 105 3 99 0;
#X connect 105 5 100 0;
#X connect 105 7 101 0;
#X connect 106 0 107 0;
#X connect 107 0 123 0;
#X connect 108 0 63 0;
#X connect 109 0 110 0;
#X connect 110 0 66 0;
#X connect 110 0 76 0;
#X connect 110 1 65 0;
#X connect 127 0 131 0;
#X connect 128 0 131 3;
#X connect 129 0 131 2;
#X connect 130 0 131 1;
#X connect 131 0 132 0;
#X connect 132 0 133 0;
#X connect 133 0 134 0;
#X connect 134 0 135 0;
#X connect 135 0 9 0;
#X connect 137 0 142 0;
#X connect 138 0 140 0;
#X connect 139 0 138 0;
#X connect 140 0 141 0;
#X connect 141 0 44 0;
#X connect 142 0 143 0;
#X connect 143 0 144 0;
#X connect 143 0 151 0;
#X connect 144 0 157 0;
#X connect 144 1 147 0;
#X connect 145 0 152 1;
#X connect 146 0 145 0;
#X connect 147 0 148 0;
#X connect 147 1 150 0;
#X connect 148 0 145 0;
#X connect 149 0 146 0;
#X connect 150 0 149 0;
#X connect 152 0 153 0;
#X connect 153 0 155 0;
#X connect 153 1 154 0;
#X connect 154 0 139 0;
#X connect 155 0 154 0;
#X connect 156 0 152 0;
#X connect 157 0 149 0;
#X connect 158 0 5 0;
