#N canvas 745 247 1020 668 12;
#X obj 175 1412 dac~;
#X obj 175 1378 *~ 0.4;
#X obj 173 1315 vline~;
#X obj 174 1348 *~;
#X obj 281 1317 osc~ 1000;
#X msg 173 1284 1 5 \, 0 150 10;
#X obj 359 140 text define -k notes;
#A set 130.81 \; 146.83 \; 164.81 \; 196 \; 220 \;;
#X obj 173 1180 text get notes;
#X obj 203 498 text size notes;
#X obj 152 197 tgl 19 0 empty empty empty 0 -10 0 12 #fcfcfc #000000 #000000 0 1;
#X obj 174 1137 % 4;
#X obj 324 1142 i;
#X obj 324 1109 / 4;
#X obj 326 1176 + 1;
#X obj 174 1051 t f f, f 22;
#X obj 174 1215 expr $f1 * pow(2 \, $f2);
#X obj 173 1248 t b f, f 16;
#X obj 449 189 hsl 162 19 0 100 0 0 empty empty empty -2 -10 0 12 #fcfcfc #000000 #000000 0 1;
#X obj 204 526 send numberOfFreqs;
#X obj 342 1078 r numberOfFreqs;
#X obj 193 1106 r numberOfFreqs;
#X obj 356 409 r numberOfFreqs;
#X text 395 438 this number sets the number of octaves covered by the range, f 16;
#X obj 162 688 i;
#X obj 162 652 expr $f2 * ($f1 / 100.);
#X obj 357 503 s range;
#X obj 319 613 r range;
#X obj 161 612 i;
#X obj 396 681 - 2;
#X obj 396 650 random 5;
#X obj 161 746 + 0;
#X obj 155 408 bng 19 250 50 0 empty empty empty 0 -10 0 12 #fcfcfc #000000 #000000;
#X obj 170 801 abs;
#X obj 327 841 r range;
#X obj 310 929 / 0;
#X obj 310 959 i;
#X obj 172 946 % 0;
#X obj 172 990 expr $f1 * (1 - (2 * $f2)) + ($f3 * $f2);
#X obj 169 839 t f f, f 20;
#X obj 327 876 t f f f, f 18;
#X obj 156 461 t b b b;
#X obj 356 443 * 3;
#X obj 154 363 metro 1 480 permin;
#X obj 175 299 i;
#X msg 176 329 tempo \$1 permin;
#X obj 443 223 s dial;
#X obj 176 242 r dial;
#X obj 181 569 r dial;
#X obj 176 272 expr ((100 * pow(($f1 / 100) \, 0.5)) * 5) + 90;
#X obj 775 493 > 80;
#X obj 775 457 r dial;
#X obj 198 428 s tick;
#X obj 690 458 r tick;
#X obj 690 492 random 100;
#X obj 690 556 > 80;
#X obj 691 588 sel 1;
#X obj 691 526 * 0;
#X obj 688 628 s wheeBang;
#X text 1073 744 we want it to jump up another octave so another numberOfFreqs and then come down - 2 octaves?;
#X obj 704 1075 r wheeBang;
#X obj 791 1072 r numberOfFreqs;
#X obj 779 1197 i;
#X obj 790 1111 * 2;
#X obj 782 1151 + 0;
#X obj 680 1148 tgl 19 0 empty empty empty 0 -10 0 12 #fcfcfc #000000 #000000 0 1;
#X obj 735 1111 t f f;
#X obj 783 1324 line;
#X obj 774 1241 pack f f;
#X obj 780 1277 \$1 \, \$2 1000 100;
#X obj 705 1365 i;
#X obj 602 1228 spigot;
#X obj 152 135 loadbang;
#X msg 152 167 1;
#X connect 1 0 0 0;
#X connect 1 0 0 1;
#X connect 2 0 3 1;
#X connect 3 0 1 0;
#X connect 4 0 3 0;
#X connect 5 0 2 0;
#X connect 7 0 15 0;
#X connect 8 0 18 0;
#X connect 9 0 42 0;
#X connect 10 0 7 0;
#X connect 11 0 13 0;
#X connect 12 0 11 0;
#X connect 13 0 15 1;
#X connect 14 0 10 0;
#X connect 14 1 12 0;
#X connect 15 0 16 0;
#X connect 16 0 5 0;
#X connect 16 1 4 0;
#X connect 17 0 45 0;
#X connect 19 0 12 1;
#X connect 20 0 10 1;
#X connect 21 0 41 0;
#X connect 23 0 30 0;
#X connect 24 0 23 0;
#X connect 26 0 24 1;
#X connect 27 0 24 0;
#X connect 28 0 30 1;
#X connect 29 0 28 0;
#X connect 30 0 32 0;
#X connect 31 0 40 0;
#X connect 31 0 51 0;
#X connect 32 0 38 0;
#X connect 33 0 39 0;
#X connect 34 0 35 0;
#X connect 35 0 37 1;
#X connect 36 0 37 0;
#X connect 37 0 14 0;
#X connect 38 0 36 0;
#X connect 38 1 34 0;
#X connect 39 0 36 1;
#X connect 39 1 34 1;
#X connect 39 2 37 2;
#X connect 40 0 27 0;
#X connect 40 1 29 0;
#X connect 40 2 8 0;
#X connect 41 0 25 0;
#X connect 42 0 31 0;
#X connect 43 0 44 0;
#X connect 44 0 42 0;
#X connect 46 0 48 0;
#X connect 47 0 27 1;
#X connect 48 0 43 0;
#X connect 49 0 56 1;
#X connect 50 0 49 0;
#X connect 52 0 53 0;
#X connect 53 0 56 0;
#X connect 54 0 55 0;
#X connect 55 0 57 0;
#X connect 56 0 54 0;
#X connect 59 0 64 0;
#X connect 60 0 62 0;
#X connect 61 0 67 0;
#X connect 62 0 63 1;
#X connect 63 0 61 1;
#X connect 65 0 67 1;
#X connect 65 1 63 0;
#X connect 66 0 69 1;
#X connect 67 0 68 0;
#X connect 68 0 66 0;
#X connect 71 0 72 0;
#X connect 72 0 9 0;
