#N canvas 87 276 1212 919 12;
#X obj 65 205 textfile;
#X msg 118 237 rewind;
#N canvas 117 129 1644 951 WORKSPACE 1;
#X obj 67 494 dac~;
#X obj 65 212 osc~ 110;
#X obj 427 22 nbx 5 14 -1e+37 1e+37 0 0 empty empty empty 0 -8 0 10
-262144 -1 -1 39.0071 256;
#X obj 427 41 s rl.drone_base_freq;
#X obj 65 186 r rl.drone_base_freq;
#X obj 271 263 osc~;
#X obj 270 98 r rl.drone_base_freq;
#X obj 284 156 random 1000;
#X obj 284 180 / 1000;
#X obj 271 213 expr ($f1 + $f2) * 2;
#X floatatom 271 237 5 0 0 0 - - -;
#X obj 71 236 throw~ rl.right;
#X obj 65 261 throw~ rl.left;
#X obj 280 289 throw~ rl.right;
#X obj 271 315 throw~ rl.left;
#X obj 67 349 catch~ rl.left;
#X obj 121 374 catch~ rl.right;
#X obj 436 262 osc~;
#X obj 435 97 r rl.drone_base_freq;
#X obj 449 155 random 1000;
#X obj 449 179 / 1000;
#X floatatom 436 236 5 0 0 0 - - -;
#X obj 445 288 throw~ rl.right;
#X obj 436 314 throw~ rl.left;
#X obj 436 212 expr ($f1 + $f2) * 3;
#X obj 596 97 r rl.drone_base_freq;
#X obj 610 155 random 1000;
#X obj 610 179 / 1000;
#X floatatom 597 236 5 0 0 0 - - -;
#X obj 606 344 throw~ rl.right;
#X obj 597 370 throw~ rl.left;
#X obj 597 212 expr ($f1 + $f2) * 4;
#X obj 597 262 rl.osc.triangle;
#X obj 597 318 rl.pan.mono~;
#X obj 690 318 nbx 5 14 -1e+37 1e+37 0 1 empty empty empty 0 -8 0 10
-262144 -1 -1 60 256;
#X obj 597 286 *~ 1;
#X obj 635 286 nbx 5 14 0 2 0 1 empty empty empty 0 -8 0 10 -262144
-1 -1 0.25 256;
#X obj 764 97 r rl.drone_base_freq;
#X obj 778 155 random 1000;
#X obj 778 179 / 1000;
#X floatatom 765 236 5 0 0 0 - - -;
#X obj 774 344 throw~ rl.right;
#X obj 765 370 throw~ rl.left;
#X obj 765 262 rl.osc.triangle;
#X obj 765 318 rl.pan.mono~;
#X obj 858 318 nbx 5 14 -1e+37 1e+37 0 1 empty empty empty 0 -8 0 10
-262144 -1 -1 -82.07 256;
#X obj 765 286 *~ 1;
#X obj 803 286 nbx 5 14 0 2 0 1 empty empty empty 0 -8 0 10 -262144
-1 -1 0.32 256;
#X obj 765 212 expr ($f1 + $f2) * 5;
#X obj 935 99 r rl.drone_base_freq;
#X obj 949 157 random 1000;
#X obj 949 181 / 1000;
#X floatatom 936 238 5 0 0 0 - - -;
#X obj 945 346 throw~ rl.right;
#X obj 936 372 throw~ rl.left;
#X obj 936 320 rl.pan.mono~;
#X obj 1029 320 nbx 5 14 -1e+37 1e+37 0 1 empty empty empty 0 -8 0
10 -262144 -1 -1 -12.85 256;
#X obj 936 288 *~ 1;
#X obj 974 288 nbx 5 14 0 2 0 1 empty empty empty 0 -8 0 10 -262144
-1 -1 0.04 256;
#X obj 936 214 expr ($f1 + $f2) * 5;
#X obj 936 264 rl.osc.sq~;
#X obj 1095 222 rl.sigtoctl;
#X floatatom 1095 270 5 0 0 0 - - -;
#X obj 1095 246 expr 75 * ($f1 + 1)/2;
#X obj 1095 198 osc~ 0.01;
#X obj 1261 90 r rl.drone_base_freq;
#X obj 1275 148 random 1000;
#X obj 1275 172 / 1000;
#X floatatom 1262 229 5 0 0 0 - - -;
#X obj 1271 337 throw~ rl.right;
#X obj 1262 363 throw~ rl.left;
#X obj 1262 311 rl.pan.mono~;
#X obj 1355 311 nbx 5 14 -1e+37 1e+37 0 1 empty empty empty 0 -8 0
10 -262144 -1 -1 14.73 256;
#X obj 1262 279 *~ 1;
#X obj 1300 279 nbx 5 14 0 2 0 1 empty empty empty 0 -8 0 10 -262144
-1 -1 0.03 256;
#X obj 1262 255 rl.osc.sq~;
#X obj 1421 213 rl.sigtoctl;
#X floatatom 1421 261 5 0 0 0 - - -;
#X obj 1421 237 expr 75 * ($f1 + 1)/2;
#X obj 1421 189 osc~ 0.01;
#X obj 1262 205 expr ($f1 + $f2) * 6;
#X obj 310 17 rl.sigtoctl;
#X obj 310 -7 osc~ 0.01;
#X obj 284 130 loadbang;
#X obj 449 127 loadbang;
#X obj 610 128 loadbang;
#X obj 778 126 loadbang;
#X obj 949 126 loadbang;
#X obj 1275 120 loadbang;
#X obj 67 402 lop~ 10000;
#X obj 121 431 lop~ 10000;
#X obj 189 398 nbx 5 14 0 22000 0 1 empty empty empty 0 -8 0 10 -262144
-1 -1 435.622 256;
#X obj 189 303 osc~ 0.01;
#X obj 189 327 rl.sigtoctl;
#X obj 189 351 expr ($f1 + 1)/2 * 10000 + 400;
#X obj 518 492 r rl.drone_base_freq;
#X obj 518 566 *~;
#X obj 518 590 *~ 0.01;
#X obj 528 637 throw~ rl.right;
#X obj 518 663 throw~ rl.left;
#X floatatom 623 575 5 0 0 0 - - -;
#X obj 518 522 osc~ 40;
#X obj 581 522 expr $f1 * 5;
#X obj 682 495 osc~ 0.01;
#X obj 682 519 rl.sigtoctl;
#X obj 682 543 expr ($f1 + 1)/2 * 0.7;
#X obj 565 552 osc~ 200;
#X obj 889 458 r rl.drone_base_freq;
#X obj 889 555 *~;
#X obj 889 579 *~ 0.01;
#X floatatom 994 564 5 0 0 0 - - -;
#X obj 1074 490 osc~ 0.01;
#X obj 1074 514 rl.sigtoctl;
#X obj 1074 538 expr ($f1 + 1)/2 * 0.7;
#X obj 889 511 phasor~ 40;
#X obj 889 482 expr $f1 * 1;
#X obj 969 510 expr $f1 * 8;
#X obj 936 541 osc~ 200;
#X obj 518 613 rl.pan.mono~;
#X obj 627 616 nbx 5 14 -1e+37 1e+37 0 1 empty empty empty 0 -8 0 10
-262144 -1 -1 -56.96 256;
#X obj 899 635 throw~ rl.right;
#X obj 889 661 throw~ rl.left;
#X obj 889 611 rl.pan.mono~;
#X obj 998 614 nbx 5 14 -1e+37 1e+37 0 1 empty empty empty 0 -8 0 10
-262144 -1 -1 76.04 256;
#X obj 121 463 *~ 0.1;
#X obj 67 463 *~ 0.1;
#X obj 40 22 loadbang;
#X msg 40 47 \; pd dsp 1;
#X obj 310 41 expr 40 + $f1;
#X connect 1 0 11 0;
#X connect 1 0 12 0;
#X connect 2 0 3 0;
#X connect 4 0 1 0;
#X connect 5 0 13 0;
#X connect 5 0 14 0;
#X connect 6 0 9 0;
#X connect 7 0 8 0;
#X connect 8 0 9 1;
#X connect 9 0 10 0;
#X connect 10 0 5 0;
#X connect 15 0 89 0;
#X connect 16 0 90 0;
#X connect 17 0 22 0;
#X connect 17 0 23 0;
#X connect 18 0 24 0;
#X connect 19 0 20 0;
#X connect 20 0 24 1;
#X connect 21 0 17 0;
#X connect 24 0 21 0;
#X connect 25 0 31 0;
#X connect 26 0 27 0;
#X connect 27 0 31 1;
#X connect 28 0 32 0;
#X connect 31 0 28 0;
#X connect 32 0 35 0;
#X connect 33 0 30 0;
#X connect 33 1 29 0;
#X connect 34 0 33 1;
#X connect 35 0 33 0;
#X connect 36 0 35 1;
#X connect 37 0 48 0;
#X connect 38 0 39 0;
#X connect 39 0 48 1;
#X connect 40 0 43 0;
#X connect 43 0 46 0;
#X connect 44 0 42 0;
#X connect 44 1 41 0;
#X connect 45 0 44 1;
#X connect 46 0 44 0;
#X connect 47 0 46 1;
#X connect 48 0 40 0;
#X connect 49 0 59 0;
#X connect 50 0 51 0;
#X connect 51 0 59 1;
#X connect 52 0 60 0;
#X connect 55 0 54 0;
#X connect 55 1 53 0;
#X connect 56 0 55 1;
#X connect 57 0 55 0;
#X connect 58 0 57 1;
#X connect 59 0 52 0;
#X connect 60 0 57 0;
#X connect 61 0 63 0;
#X connect 63 0 60 1;
#X connect 63 0 62 0;
#X connect 64 0 61 0;
#X connect 65 0 80 0;
#X connect 66 0 67 0;
#X connect 67 0 80 1;
#X connect 68 0 75 0;
#X connect 71 0 70 0;
#X connect 71 1 69 0;
#X connect 72 0 71 1;
#X connect 73 0 71 0;
#X connect 74 0 73 1;
#X connect 75 0 73 0;
#X connect 76 0 78 0;
#X connect 78 0 75 1;
#X connect 78 0 77 0;
#X connect 79 0 76 0;
#X connect 80 0 68 0;
#X connect 81 0 128 0;
#X connect 82 0 81 0;
#X connect 83 0 7 0;
#X connect 84 0 19 0;
#X connect 85 0 26 0;
#X connect 86 0 38 0;
#X connect 87 0 50 0;
#X connect 88 0 66 0;
#X connect 89 0 125 0;
#X connect 90 0 124 0;
#X connect 91 0 89 1;
#X connect 91 0 90 1;
#X connect 92 0 93 0;
#X connect 93 0 94 0;
#X connect 94 0 91 0;
#X connect 95 0 101 0;
#X connect 95 0 102 0;
#X connect 96 0 97 0;
#X connect 97 0 118 0;
#X connect 100 0 97 1;
#X connect 101 0 96 0;
#X connect 102 0 106 0;
#X connect 103 0 104 0;
#X connect 104 0 105 0;
#X connect 105 0 100 0;
#X connect 106 0 96 1;
#X connect 107 0 115 0;
#X connect 107 0 116 0;
#X connect 108 0 109 0;
#X connect 109 0 122 0;
#X connect 110 0 109 1;
#X connect 111 0 112 0;
#X connect 112 0 113 0;
#X connect 113 0 110 0;
#X connect 114 0 108 0;
#X connect 115 0 114 0;
#X connect 116 0 117 0;
#X connect 117 0 108 1;
#X connect 118 0 99 0;
#X connect 118 1 98 0;
#X connect 119 0 118 1;
#X connect 122 0 121 0;
#X connect 122 1 120 0;
#X connect 123 0 122 1;
#X connect 124 0 0 1;
#X connect 125 0 0 0;
#X connect 126 0 127 0;
#X connect 128 0 2 0;
#X restore 268 50 pd WORKSPACE;
#X obj 65 307 list split 1;
#X obj 105 335 list trim;
#X obj 105 359 send pd-WORKSPACE;
#X obj 204 232 until;
#X msg 183 335 clear;
#X obj 378 48 bng 200 250 50 0 empty empty empty 17 7 0 10 -258113
-1 -1;
#X obj 379 255 send rl.patch_reload;
#X obj 204 166 r rl.patch_reload;
#X obj 204 190 t b b;
#X obj 94 277 print;
#X msg 217 132 print;
#X obj 65 78 r rl.patch_reload;
#X obj 65 103 t b b;
#X msg 65 134 read rl/drone.pd;
#X msg 224 293 loadbang bang;
#X connect 0 0 3 0;
#X connect 0 0 12 0;
#X connect 0 1 1 0;
#X connect 0 1 6 1;
#X connect 0 1 17 0;
#X connect 1 0 0 0;
#X connect 3 1 4 0;
#X connect 4 0 5 0;
#X connect 6 0 0 0;
#X connect 7 0 5 0;
#X connect 8 0 9 0;
#X connect 10 0 11 0;
#X connect 11 0 6 0;
#X connect 11 1 7 0;
#X connect 13 0 0 0;
#X connect 14 0 15 0;
#X connect 15 0 1 0;
#X connect 15 1 16 0;
#X connect 16 0 0 0;
#X connect 17 0 5 0;
