#N canvas 596 188 675 480 12;
#X obj 480 315 rpole~ 0.8;
#X obj 464 255 osc~ 100;
#X floatatom 456 139 5 0 0 0 - - - 0;
#X obj 387 144 *~ 80;
#X obj 384 108 osc~ 4;
#X floatatom 371 78 5 0 0 0 - - - 0;
#X floatatom 464 94 5 0 0 0 - - - 0;
#X msg 76 50 start;
#X msg 191 88 print;
#X msg 33 14 open /home/macarc/audio.wav;
#X msg 126 78 stop;
#X obj 91 280 dac~;
#X obj 452 392 dac~;
#X obj 79 146 readsf~ 2;
#X connect 1 0 0 0;
#X connect 2 0 1 0;
#X connect 3 0 1 0;
#X connect 4 0 3 0;
#X connect 5 0 4 0;
#X connect 6 0 3 1;
#X connect 7 0 13 0;
#X connect 8 0 13 0;
#X connect 9 0 13 0;
#X connect 10 0 13 0;
#X connect 13 0 11 0;
#X connect 13 1 11 1;
