#N canvas 330 231 1519 744 12;
#X msg 8 29 \; pd dsp 1;
#X obj 8 6 loadbang;
#X floatatom 16 72 5 0 0 0 - - -;
#X text 12 49 current target root pitch;
#X obj 16 93 rl.drone;
#X obj 13 316 *~ 0.1;
#X obj 66 316 *~ 0.1;
#X obj 13 344 dac~;
#X obj 16 152 throw~ aq.dac.l;
#X obj 69 175 throw~ aq.dac.r;
#X obj 13 269 catch~ aq.dac.l;
#X obj 66 290 catch~ aq.dac.r;
#N canvas 304 204 1460 714 rl.melody 1;
#X obj 7 9 inlet;
#X obj 379 5 inlet;
#X obj 7 287 outlet~;
#X obj 376 224 outlet~;
#X floatatom 7 33 5 0 0 0 - - -;
#X floatatom 379 29 5 0 0 0 - - -;
#X obj 152 240 vline~;
#X obj 7 143 phasor~;
#X obj 7 259 *~;
#X obj 393 162 vline~;
#X obj 378 86 phasor~;
#X obj 376 192 *~;
#X obj 126 85 bng 15 250 50 0 empty empty empty 17 7 0 10 -262144 -1
-1;
#X obj 7 167 *~;
#X obj 69 50 / 1000;
#X obj 69 74 +;
#X obj 72 144 phasor~;
#X obj 7 202 +~;
#X obj 69 26 random 5000;
#X obj 173 53 / 1000;
#X obj 173 77 +;
#X obj 176 147 phasor~;
#X obj 7 226 +~;
#X obj 173 29 random 20000;
#X msg 152 216 1 5000 \, 0 2000 5000;
#X obj 453 15 osc~ 0.1;
#X obj 453 39 rl.sigtoctl;
#X obj 454 63 +;
#X msg 393 138 0 0 \, 1 5000 1000 \, 0 2000 7000;
#X obj 7 105 * 1;
#X obj 69 98 * 1;
#X obj 378 62 * 1;
#X obj 173 101 * 2;
#X connect 0 0 4 0;
#X connect 1 0 5 0;
#X connect 4 0 15 0;
#X connect 4 0 20 0;
#X connect 4 0 18 0;
#X connect 4 0 23 0;
#X connect 4 0 29 0;
#X connect 5 0 27 1;
#X connect 6 0 8 1;
#X connect 7 0 13 0;
#X connect 8 0 2 0;
#X connect 9 0 11 1;
#X connect 10 0 11 0;
#X connect 11 0 3 0;
#X connect 12 0 24 0;
#X connect 12 0 28 0;
#X connect 12 0 4 0;
#X connect 12 0 5 0;
#X connect 12 0 18 0;
#X connect 12 0 23 0;
#X connect 13 0 17 0;
#X connect 14 0 15 1;
#X connect 15 0 30 0;
#X connect 16 0 17 1;
#X connect 17 0 22 0;
#X connect 18 0 14 0;
#X connect 19 0 20 1;
#X connect 20 0 32 0;
#X connect 21 0 22 1;
#X connect 22 0 8 0;
#X connect 23 0 19 0;
#X connect 24 0 6 0;
#X connect 25 0 26 0;
#X connect 26 0 27 0;
#X connect 27 0 31 0;
#X connect 28 0 9 0;
#X connect 29 0 7 0;
#X connect 30 0 16 0;
#X connect 31 0 10 0;
#X connect 32 0 21 0;
#X restore 366 91 pd rl.melody;
#X obj 366 116 throw~ aq.dac.l;
#X obj 448 141 throw~ aq.dac.r;
#X obj 113 101 nbx 5 14 0 2 0 1 empty empty empty 0 -8 0 10 -262144
-1 -1 0.17 256;
#X obj 16 120 *~;
#X obj 57 121 *~;
#X connect 1 0 0 0;
#X connect 2 0 4 0;
#X connect 4 0 16 0;
#X connect 4 1 17 0;
#X connect 5 0 7 0;
#X connect 6 0 7 1;
#X connect 10 0 5 0;
#X connect 11 0 6 0;
#X connect 12 0 13 0;
#X connect 12 1 14 0;
#X connect 15 0 16 1;
#X connect 15 0 17 1;
#X connect 16 0 8 0;
#X connect 17 0 9 0;
