#N canvas 953 236 896 560 12;
#X obj 74 83 comport;
#X msg 85 39 devices;
#X msg 195 5 open 1;
#X msg 194 70 pollintervall 1;
#X msg 287 116 baud 19200;
#X obj 206 271 dac~;
#X obj 294 231 *~ 0.2;
#X obj 462 47 loadbang;
#X msg 638 132 \; pd dsp 1;
#X obj 188 184 osc~ 220;
#X obj 133 452 pduino/arduino;
#X msg 284 364 devices;
#X msg 403 414 pinMode 14 analog \, bang;
#X msg 630 390 samplingInterval 16;
#X obj 138 497 print;
#X msg 288 466 analogIns 0;
#X msg 286 329 version;
#X msg 161 348 open 0;
#X connect 1 0 0 0;
#X connect 2 0 0 0;
#X connect 3 0 0 0;
#X connect 4 0 0 0;
#X connect 6 0 5 0;
#X connect 7 0 8 0;
#X connect 9 0 6 0;
#X connect 10 0 14 0;
#X connect 11 0 10 0;
#X connect 12 0 10 0;
#X connect 13 0 10 0;
#X connect 15 0 10 0;
#X connect 16 0 10 0;
#X connect 17 0 10 0;
