#N canvas 657 185 970 884 12;
#X msg 23 86 open 0;
#X obj 132 203 print [info];
#X msg 32 109 devices;
#X msg 38 131 version;
#X msg 102 131 firmware;
#X obj 23 165 pduino/arduino 0;
#X obj 308 167 comport;
#X msg 308 72 open 2;
#X msg 319 96 baud 9600;
#X msg 328 123 pollintervall 1;
#X msg 29 39 pinMode 14 analog \, bang;
#X obj 73 471 hsl 128 15 0 127 0 0 empty empty empty -2 -8 0 10 -262144
-1 -1 25 1;
#X obj 24 236 route analog;
#X obj 24 269 route 0;
#X obj 70 438 line;
#X msg 186 105 close;
#X obj 120 349 print [value];
#X obj 24 300 expr if($f1 < 1 \, $f1 \, 0);
#X obj 24 329 route 0;
#X obj 308 197 moses 3, f 8;
#X obj 308 224 pack i i;
#X obj 308 251 route 0 1 2;
#X obj 303 298 print [r];
#X obj 329 333 print [g];
#X obj 353 363 print [b];
#X obj 415 825 dac~;
#X floatatom 417 565 5 0 0 0 - - -;
#X obj 414 794 *~ 0.8;
#X obj 414 718 phasor~ 110;
#X obj 414 760 lop~;
#X floatatom 594 423 5 0 0 0 - - -;
#X floatatom 798 553 5 0 0 0 - - -;
#X obj 705 496 * 300;
#X obj 305 6 loadbang;
#X obj 305 36 t b b;
#X msg 136 75 samplingInterval 50;
#X msg 417 28 \; pd dsp 1;
#X obj 636 60 metro 1000;
#X obj 638 34 tgl 15 0 empty empty empty 17 7 0 10 -262144 -1 -1 1
1;
#X obj 636 89 t b b;
#X obj 70 367 * 127.001;
#X msg 70 405 \$1 50;
#X obj 417 536 expr 220 + 100 * $f1;
#X obj 413 624 line;
#X floatatom 413 649 5 0 0 0 - - -;
#X msg 415 596 \$1 500;
#X connect 0 0 5 0;
#X connect 2 0 5 0;
#X connect 3 0 5 0;
#X connect 4 0 5 0;
#X connect 5 0 12 0;
#X connect 5 1 1 0;
#X connect 6 0 19 0;
#X connect 7 0 6 0;
#X connect 8 0 6 0;
#X connect 9 0 6 0;
#X connect 10 0 5 0;
#X connect 12 0 13 0;
#X connect 13 0 17 0;
#X connect 14 0 11 0;
#X connect 15 0 5 0;
#X connect 17 0 18 0;
#X connect 18 1 16 0;
#X connect 18 1 40 0;
#X connect 19 0 20 0;
#X connect 19 1 20 1;
#X connect 20 0 21 0;
#X connect 21 0 22 0;
#X connect 21 0 30 0;
#X connect 21 1 23 0;
#X connect 21 2 24 0;
#X connect 26 0 45 0;
#X connect 27 0 25 0;
#X connect 27 0 25 1;
#X connect 28 0 29 0;
#X connect 29 0 27 0;
#X connect 30 0 32 0;
#X connect 32 0 29 1;
#X connect 32 0 31 0;
#X connect 33 0 34 0;
#X connect 33 0 36 0;
#X connect 34 0 0 0;
#X connect 34 0 10 0;
#X connect 34 0 35 0;
#X connect 34 1 7 0;
#X connect 34 1 8 0;
#X connect 34 1 9 0;
#X connect 34 1 38 0;
#X connect 35 0 5 0;
#X connect 37 0 39 0;
#X connect 38 0 37 0;
#X connect 39 0 10 0;
#X connect 39 0 35 0;
#X connect 39 1 0 0;
#X connect 40 0 41 0;
#X connect 40 0 42 0;
#X connect 41 0 14 0;
#X connect 42 0 26 0;
#X connect 43 0 44 0;
#X connect 44 0 28 0;
#X connect 45 0 43 0;
