#N canvas 5 64 1440 717 12;
#X obj 67 494 dac~;
#X obj 67 463 *~ 0.8;
#X obj 121 463 *~ 0.8;
#X obj 65 212 osc~ 110;
#X obj 427 22 nbx 5 14 -1e+37 1e+37 0 0 empty empty empty 0 -8 0 10
-262144 -1 -1 39.0958 256;
#X obj 427 41 s rl.drone_base_freq;
#X obj 65 186 r rl.drone_base_freq;
#X obj 271 263 osc~;
#X obj 270 98 r rl.drone_base_freq;
#X obj 284 156 random 1000;
#X obj 284 180 / 1000;
#X obj 271 213 expr ($f1 + $f2) * 2;
#X floatatom 271 237 5 0 0 0 - - -;
#X obj 71 236 throw~ rl.right;
#X obj 65 261 throw~ rl.left;
#X obj 280 289 throw~ rl.right;
#X obj 271 315 throw~ rl.left;
#X obj 67 349 catch~ rl.left;
#X obj 121 374 catch~ rl.right;
#X obj 436 262 osc~;
#X obj 435 97 r rl.drone_base_freq;
#X obj 449 155 random 1000;
#X obj 449 179 / 1000;
#X floatatom 436 236 5 0 0 0 - - -;
#X obj 445 288 throw~ rl.right;
#X obj 436 314 throw~ rl.left;
#X obj 436 212 expr ($f1 + $f2) * 3;
#X obj 596 97 r rl.drone_base_freq;
#X obj 610 155 random 1000;
#X obj 610 179 / 1000;
#X floatatom 597 236 5 0 0 0 - - -;
#X obj 606 344 throw~ rl.right;
#X obj 597 370 throw~ rl.left;
#X obj 597 212 expr ($f1 + $f2) * 4;
#X obj 597 262 rl.osc.triangle;
#X obj 597 318 rl.pan.mono~;
#X obj 690 318 nbx 5 14 -1e+37 1e+37 0 1 empty empty empty 0 -8 0 10
-262144 -1 -1 60 256;
#X obj 597 286 *~ 1;
#X obj 635 286 nbx 5 14 0 2 0 1 empty empty empty 0 -8 0 10 -262144
-1 -1 0.25 256;
#X obj 764 97 r rl.drone_base_freq;
#X obj 778 155 random 1000;
#X obj 778 179 / 1000;
#X floatatom 765 236 5 0 0 0 - - -;
#X obj 774 344 throw~ rl.right;
#X obj 765 370 throw~ rl.left;
#X obj 765 262 rl.osc.triangle;
#X obj 765 318 rl.pan.mono~;
#X obj 858 318 nbx 5 14 -1e+37 1e+37 0 1 empty empty empty 0 -8 0 10
-262144 -1 -1 -82.07 256;
#X obj 765 286 *~ 1;
#X obj 803 286 nbx 5 14 0 2 0 1 empty empty empty 0 -8 0 10 -262144
-1 -1 0.32 256;
#X obj 765 212 expr ($f1 + $f2) * 5;
#X obj 935 99 r rl.drone_base_freq;
#X obj 949 157 random 1000;
#X obj 949 181 / 1000;
#X floatatom 936 238 5 0 0 0 - - -;
#X obj 945 346 throw~ rl.right;
#X obj 936 372 throw~ rl.left;
#X obj 936 320 rl.pan.mono~;
#X obj 1029 320 nbx 5 14 -1e+37 1e+37 0 1 empty empty empty 0 -8 0
10 -262144 -1 -1 -12.85 256;
#X obj 936 288 *~ 1;
#X obj 974 288 nbx 5 14 0 2 0 1 empty empty empty 0 -8 0 10 -262144
-1 -1 0.04 256;
#X obj 936 214 expr ($f1 + $f2) * 5;
#X obj 936 264 rl.osc.sq~;
#X obj 1095 222 rl.sigtoctl;
#X floatatom 1095 270 5 0 0 0 - - -;
#X obj 1095 246 expr 75 * ($f1 + 1)/2;
#X obj 1095 198 osc~ 0.01;
#X obj 1261 90 r rl.drone_base_freq;
#X obj 1275 148 random 1000;
#X obj 1275 172 / 1000;
#X floatatom 1262 229 5 0 0 0 - - -;
#X obj 1271 337 throw~ rl.right;
#X obj 1262 363 throw~ rl.left;
#X obj 1262 311 rl.pan.mono~;
#X obj 1355 311 nbx 5 14 -1e+37 1e+37 0 1 empty empty empty 0 -8 0
10 -262144 -1 -1 14.73 256;
#X obj 1262 279 *~ 1;
#X obj 1300 279 nbx 5 14 0 2 0 1 empty empty empty 0 -8 0 10 -262144
-1 -1 0.03 256;
#X obj 1262 255 rl.osc.sq~;
#X obj 1421 213 rl.sigtoctl;
#X floatatom 1421 261 5 0 0 0 - - -;
#X obj 1421 237 expr 75 * ($f1 + 1)/2;
#X obj 1421 189 osc~ 0.01;
#X obj 1262 205 expr ($f1 + $f2) * 6;
#X obj 672 42 rl.sigtoctl;
#X obj 672 18 osc~ 0.01;
#X obj 284 130 loadbang;
#X obj 449 127 loadbang;
#X obj 610 128 loadbang;
#X obj 778 126 loadbang;
#X obj 949 126 loadbang;
#X obj 1275 120 loadbang;
#X obj 67 402 lop~ 10000;
#X obj 121 431 lop~ 10000;
#X obj 189 398 nbx 5 14 0 22000 0 1 empty empty empty 0 -8 0 10 -262144
-1 -1 10397 256;
#X obj 189 303 osc~ 0.01;
#X obj 189 327 rl.sigtoctl;
#X obj 189 351 expr ($f1 + 1)/2 * 10000 + 400;
#X obj 672 66 expr 40 + $f1;
#X obj 518 492 r rl.drone_base_freq;
#X obj 518 566 *~;
#X obj 518 590 *~ 0.01;
#X obj 528 637 throw~ rl.right;
#X obj 518 663 throw~ rl.left;
#X floatatom 623 575 5 0 0 0 - - -;
#X obj 518 522 osc~ 40;
#X obj 581 522 expr $f1 * 5;
#X obj 682 495 osc~ 0.01;
#X obj 682 519 rl.sigtoctl;
#X obj 682 543 expr ($f1 + 1)/2 * 0.7;
#X obj 565 552 osc~ 200;
#X obj 889 458 r rl.drone_base_freq;
#X obj 889 555 *~;
#X obj 889 579 *~ 0.01;
#X floatatom 994 564 5 0 0 0 - - -;
#X obj 1074 490 osc~ 0.01;
#X obj 1074 514 rl.sigtoctl;
#X obj 1074 538 expr ($f1 + 1)/2 * 0.7;
#X obj 889 511 phasor~ 40;
#X obj 889 482 expr $f1 * 1;
#X obj 969 510 expr $f1 * 8;
#X obj 936 541 osc~ 200;
#X obj 518 613 rl.pan.mono~;
#X obj 627 616 nbx 5 14 -1e+37 1e+37 0 1 empty empty empty 0 -8 0 10
-262144 -1 -1 -56.96 256;
#X obj 899 635 throw~ rl.right;
#X obj 889 661 throw~ rl.left;
#X obj 889 611 rl.pan.mono~;
#X obj 998 614 nbx 5 14 -1e+37 1e+37 0 1 empty empty empty 0 -8 0 10
-262144 -1 -1 76.04 256;
#X connect 1 0 0 0;
#X connect 2 0 0 1;
#X connect 3 0 13 0;
#X connect 3 0 14 0;
#X connect 4 0 5 0;
#X connect 6 0 3 0;
#X connect 7 0 15 0;
#X connect 7 0 16 0;
#X connect 8 0 11 0;
#X connect 9 0 10 0;
#X connect 10 0 11 1;
#X connect 11 0 12 0;
#X connect 12 0 7 0;
#X connect 17 0 91 0;
#X connect 18 0 92 0;
#X connect 19 0 24 0;
#X connect 19 0 25 0;
#X connect 20 0 26 0;
#X connect 21 0 22 0;
#X connect 22 0 26 1;
#X connect 23 0 19 0;
#X connect 26 0 23 0;
#X connect 27 0 33 0;
#X connect 28 0 29 0;
#X connect 29 0 33 1;
#X connect 30 0 34 0;
#X connect 33 0 30 0;
#X connect 34 0 37 0;
#X connect 35 0 32 0;
#X connect 35 1 31 0;
#X connect 36 0 35 1;
#X connect 37 0 35 0;
#X connect 38 0 37 1;
#X connect 39 0 50 0;
#X connect 40 0 41 0;
#X connect 41 0 50 1;
#X connect 42 0 45 0;
#X connect 45 0 48 0;
#X connect 46 0 44 0;
#X connect 46 1 43 0;
#X connect 47 0 46 1;
#X connect 48 0 46 0;
#X connect 49 0 48 1;
#X connect 50 0 42 0;
#X connect 51 0 61 0;
#X connect 52 0 53 0;
#X connect 53 0 61 1;
#X connect 54 0 62 0;
#X connect 57 0 56 0;
#X connect 57 1 55 0;
#X connect 58 0 57 1;
#X connect 59 0 57 0;
#X connect 60 0 59 1;
#X connect 61 0 54 0;
#X connect 62 0 59 0;
#X connect 63 0 65 0;
#X connect 65 0 62 1;
#X connect 65 0 64 0;
#X connect 66 0 63 0;
#X connect 67 0 82 0;
#X connect 68 0 69 0;
#X connect 69 0 82 1;
#X connect 70 0 77 0;
#X connect 73 0 72 0;
#X connect 73 1 71 0;
#X connect 74 0 73 1;
#X connect 75 0 73 0;
#X connect 76 0 75 1;
#X connect 77 0 75 0;
#X connect 78 0 80 0;
#X connect 80 0 77 1;
#X connect 80 0 79 0;
#X connect 81 0 78 0;
#X connect 82 0 70 0;
#X connect 83 0 97 0;
#X connect 84 0 83 0;
#X connect 85 0 9 0;
#X connect 86 0 21 0;
#X connect 87 0 28 0;
#X connect 88 0 40 0;
#X connect 89 0 52 0;
#X connect 90 0 68 0;
#X connect 91 0 1 0;
#X connect 92 0 2 0;
#X connect 93 0 91 1;
#X connect 93 0 92 1;
#X connect 94 0 95 0;
#X connect 95 0 96 0;
#X connect 96 0 93 0;
#X connect 97 0 4 0;
#X connect 98 0 104 0;
#X connect 98 0 105 0;
#X connect 99 0 100 0;
#X connect 100 0 121 0;
#X connect 103 0 100 1;
#X connect 104 0 99 0;
#X connect 105 0 109 0;
#X connect 106 0 107 0;
#X connect 107 0 108 0;
#X connect 108 0 103 0;
#X connect 109 0 99 1;
#X connect 110 0 118 0;
#X connect 110 0 119 0;
#X connect 111 0 112 0;
#X connect 112 0 125 0;
#X connect 113 0 112 1;
#X connect 114 0 115 0;
#X connect 115 0 116 0;
#X connect 116 0 113 0;
#X connect 117 0 111 0;
#X connect 118 0 117 0;
#X connect 119 0 120 0;
#X connect 120 0 111 1;
#X connect 121 0 102 0;
#X connect 121 1 101 0;
#X connect 122 0 121 1;
#X connect 125 0 124 0;
#X connect 125 1 123 0;
#X connect 126 0 125 1;
