#N canvas 459 273 327 365 10;
#X obj 9 71 phasor~;
#X obj 120 71 / 100;
#X obj 120 50 clip 0.3 99.7;
#X obj 9 92 expr~ ($v1>$f2)*2-1;
#X obj 9 112 outlet~;
#X obj 196 9 loadbang;
#X obj 9 50 inlet;
#X obj 120 30 inlet;
#X msg 166 30 50;
#X connect 0 0 3 0;
#X connect 1 0 3 1;
#X connect 2 0 1 0;
#X connect 3 0 4 0;
#X connect 5 0 8 0;
#X connect 6 0 0 0;
#X connect 7 0 2 0;
#X connect 8 0 2 0;
