#N canvas 72 62 1318 682 12;
#X obj 22 315 *~;
#X obj 30 265 *~;
#X obj 21 236 inlet~;
#X obj 22 350 outlet~;
#X obj 30 291 outlet~;
#X obj 139 131 inlet;
#X obj 139 156 clip -100 100;
#X obj 139 182 expr ($f1 + 100.0)/200.0;
#X obj 139 207 expr sqrt(1.0 - $f1) \; sqrt($f1) \;;
#X floatatom 139 297 5 0 0 0 - - -;
#X floatatom 283 247 5 0 0 0 - - -;
#X obj 204 104 loadbang;
#X obj 204 128 f \$1;
#X text 8 5 Pans a mono signal in the stereo field. inlet 1: the signal
to pan inlet 2: float [-100 \, 100] -100 is all left 100 is all right
\$1: initial value for inlet 2 outlet 1: left channel outlet 2: right
channel, f 62;
#X connect 0 0 3 0;
#X connect 1 0 4 0;
#X connect 2 0 0 0;
#X connect 2 0 1 0;
#X connect 5 0 6 0;
#X connect 6 0 7 0;
#X connect 7 0 8 0;
#X connect 8 0 9 0;
#X connect 8 1 10 0;
#X connect 9 0 0 1;
#X connect 10 0 1 1;
#X connect 11 0 12 0;
#X connect 12 0 6 0;
