#N canvas 980 168 901 729 12;
#X obj 105 12 loadbang;
#X obj 105 36 f \$1;
#X obj 199 39 f \$2;
#X obj 8 10 inlet;
#X obj 8 34 bng 15 250 50 0 empty empty empty 17 7 0 10 -262144 -1
-1;
#X obj 10 234 outlet;
#X obj 8 79 / 60000;
#X obj 106 89 expr $f2 - $f1;
#X obj 8 176 expr $f1 * $f2 + $f3;
#X obj 8 55 random 60000;
#X floatatom 23 200 5 0 0 0 - - -;
#X connect 0 0 1 0;
#X connect 0 0 2 0;
#X connect 1 0 7 0;
#X connect 1 0 8 2;
#X connect 2 0 7 1;
#X connect 3 0 4 0;
#X connect 4 0 9 0;
#X connect 4 0 1 0;
#X connect 4 0 2 0;
#X connect 6 0 8 0;
#X connect 7 0 8 1;
#X connect 8 0 5 0;
#X connect 8 0 10 0;
#X connect 9 0 6 0;
