#N canvas 0 50 450 300 10;
#X obj 124 127 inlet~;
#X obj 124 148 snapshot~;
#X obj 124 169 outlet;
#X obj 209 113 tgl 15 1 empty empty empty 17 7 0 10 -262144 -1 -1 1
1;
#X obj 209 134 metro 100;
#X connect 0 0 1 0;
#X connect 1 0 2 0;
#X connect 3 0 4 0;
#X connect 4 0 1 0;
